<?xml version="1.0" standalone="no"?>
<!DOCTYPE svg PUBLIC "-//W3C//DTD SVG 20010904//EN"
 "http://www.w3.org/TR/2001/REC-SVG-20010904/DTD/svg10.dtd">
<svg version="1.0" xmlns="http://www.w3.org/2000/svg"
 width="521.000000pt" height="521.000000pt" viewBox="0 0 521.000000 521.000000"
 preserveAspectRatio="xMidYMid meet">

<g transform="translate(0.000000,521.000000) scale(0.100000,-0.100000)"
fill="#3b82f6" stroke="none">
<path d="M1671 4799 l-82 -71 69 -72 c79 -82 115 -133 164 -231 185 -367 122
-788 -162 -1098 l-62 -67 77 -73 c43 -39 81 -73 85 -75 21 -8 176 172 243 284
100 167 147 335 154 554 9 274 -48 487 -189 700 -43 66 -187 220 -205 220 -6
0 -47 -32 -92 -71z"/>
<path d="M1378 4574 c-43 -36 -78 -71 -78 -76 0 -5 27 -40 61 -76 215 -235
224 -599 19 -835 -72 -84 -67 -122 24 -197 55 -46 59 -47 91 -22 84 66 180
215 224 348 99 297 30 636 -173 849 -39 41 -75 75 -81 75 -5 0 -45 -30 -87
-66z"/>
<path d="M1087 4347 l-78 -72 37 -45 c20 -25 51 -74 67 -110 56 -118 38 -229
-56 -353 -21 -26 -37 -51 -37 -55 0 -4 34 -41 76 -82 l75 -75 61 64 c173 184
196 479 52 687 -35 52 -97 114 -112 114 -4 0 -42 -33 -85 -73z"/>
<path d="M1034 3378 c-260 -172 -412 -390 -454 -652 -16 -96 -8 -330 14 -411
90 -335 415 -583 817 -625 56 -5 103 -10 105 -10 2 0 4 -52 4 -115 0 -63 3
-115 8 -115 4 0 127 120 275 268 l267 267 -275 275 -275 275 0 -124 0 -124
-100 7 c-137 9 -192 21 -287 67 -109 52 -201 137 -245 227 -76 155 -39 373
107 618 29 49 79 123 109 162 31 40 56 74 56 77 0 13 -25 -1 -126 -67z"/>
<path d="M2410 3418 c-24 -13 -58 -40 -74 -61 l-31 -39 -3 -1414 c-2 -1389 -2
-1415 17 -1453 25 -48 71 -87 119 -101 26 -8 350 -10 1054 -8 l1016 3 43 30
c23 17 53 50 66 74 l23 44 0 1103 0 1103 -292 3 c-333 3 -346 6 -403 87 l-30
43 -3 304 -3 304 -727 0 -728 0 -44 -22z m1860 -1303 l0 -65 -800 0 -800 0 0
65 0 65 800 0 800 0 0 -65z m0 -310 l0 -65 -800 0 -800 0 0 65 0 65 800 0 800
0 0 -65z m0 -310 l0 -65 -800 0 -800 0 0 65 0 65 800 0 800 0 0 -65z"/>
</g>
</svg>
